<?xml version="1.0" encoding="UTF-8"?>
<svg id="Layer_1" data-name="Layer 1" xmlns="http://www.w3.org/2000/svg" version="1.1" viewBox="0 0 1200 600">
  <defs>
    <style>
      .cls-1 {
        isolation: isolate;
      }

      .cls-2 {
        fill: #0000c9;
        stroke-width: 0px;
      }
    </style>
  </defs>
  <path class="cls-2" d="M225.2,183.3H51.9c-8.2,0-15,6.7-15,15v203.4c0,8.2,6.7,15,15,15h173.3c8.2,0,15-6.7,15-15v-203.4c0-8.2-6.7-15-15-15ZM158.5,207.5c14.6-8.4,33.3-3.4,41.7,11.2,8.4,14.6,3.4,33.3-11.2,41.7l-1.3.8c-8.7,4.1-19.3,4-28.3-1.2l-38.6-22.3c-3.2-1.9-3.2-6.5,0-8.3l37.8-21.8h0ZM113,387.8c-9,5.2-19.6,5.3-28.3,1.2l-1.3-.8c-14.6-8.4-19.6-27.1-11.2-41.7,8.4-14.6,27.1-19.6,41.7-11.2l37.8,21.8c3.2,1.9,3.2,6.5,0,8.3l-38.6,22.3h0ZM201,334.2h0c-8.4,14.6-27.2,19.6-41.8,11.2l-74.5-43c-14.6-8.4-19.6-27.2-11.2-41.8h0c8.4-14.6,27.2-19.6,41.8-11.2l74.5,43c14.6,8.4,19.6,27.2,11.2,41.8h0Z"/>
  <g class="cls-1">
    <path class="cls-2" d="M295.5,319.1c7.6,8.1,19.5,15.2,34.9,15.2s22.2-7.8,22.2-15.1-11.8-12.9-25.2-16.4c-18-4.5-39.2-9.8-39.2-33.1s16.1-32.3,40.2-32.3,31.1,5.5,41.4,15.4l-11.1,14.4c-8.6-8.6-20.4-12.6-31.9-12.6s-18.7,5.5-18.7,13.7,11.3,11.4,24.3,14.7c18.2,4.6,39.9,10.3,39.9,34.3s-12.9,34.1-42.7,34.1-35.1-7.1-44.8-17.5l10.8-14.9Z"/>
    <path class="cls-2" d="M489.3,349.5v-52.1c0-8.6-3.8-14.4-13.1-14.4s-15.1,5.5-18.5,10.6v55.9h-17.4v-52.1c0-8.6-3.8-14.4-13.2-14.4s-14.7,5.5-18.4,10.8v55.8h-17.4v-79.9h17.4v10.9c3.3-5,13.9-12.9,26-12.9s19.2,6,21.8,14.7c4.6-7.3,15.2-14.7,27.1-14.7s23,7.9,23,24.2v57.8h-17.4Z"/>
    <path class="cls-2" d="M579.6,349.5v-8.6c-6,6.8-15.2,10.6-25.8,10.6s-27.8-8.8-27.8-26.5,14.7-26,27.8-26,20,3.5,25.8,10.3v-11.9c0-9.3-7.6-14.9-18.7-14.9s-16.7,3.3-23.7,10.1l-7.1-12.1c9.3-8.8,20.9-12.9,33.6-12.9s33.3,7.4,33.3,29v53h-17.4ZM579.6,319.2c-4-5.5-11.4-8.3-19-8.3s-17,5.6-17,14.4,7.3,14.2,17,14.2,15.1-2.8,19-8.3v-12.1Z"/>
    <path class="cls-2" d="M621.2,349.5v-79.9h17.4v11.8c6-7.6,15.6-13.6,26-13.6v17.2c-1.5-.3-3.3-.5-5.5-.5-7.3,0-17,5-20.5,10.6v54.4h-17.4Z"/>
    <path class="cls-2" d="M683.7,331v-46.2h-13.2v-15.2h13.2v-21.8h17.4v21.8h16.2v15.2h-16.2v41.9c0,5.5,2.6,9.4,7.6,9.4s6.5-1.3,7.8-2.8l4.1,13.1c-3.1,3-8.3,5.1-16.4,5.1-13.4,0-20.5-7.3-20.5-20.5Z"/>
    <path class="cls-2" d="M817.1,349.5l-21.5-81.4-21.3,81.4h-20.7l-31.6-110.4h21.7l21.5,85.1,22.8-85.1h15.4l22.8,85.1,21.3-85.1h21.7l-31.4,110.4h-20.7Z"/>
    <path class="cls-2" d="M881.1,245.6c0-6,5-10.8,10.8-10.8s10.8,4.8,10.8,10.8-4.8,10.8-10.8,10.8-10.8-4.8-10.8-10.8ZM883.3,349.5v-79.9h17.4v79.9h-17.4Z"/>
    <path class="cls-2" d="M978.8,349.5v-50c0-12.4-6.3-16.5-16.1-16.5s-16.5,5.3-20.5,10.8v55.8h-17.4v-79.9h17.4v10.9c5.3-6.3,15.6-12.9,28.1-12.9s25.8,9.3,25.8,25.7v56.3h-17.4Z"/>
    <path class="cls-2" d="M1074.3,349.5v-50c0-12.4-6.3-16.5-16.1-16.5s-16.5,5.3-20.5,10.8v55.8h-17.4v-79.9h17.4v10.9c5.3-6.3,15.6-12.9,28.1-12.9s25.8,9.3,25.8,25.7v56.3h-17.4Z"/>
    <path class="cls-2" d="M1115.8,349.5v-79.9h17.4v11.8c6-7.6,15.6-13.6,26-13.6v17.2c-1.5-.3-3.3-.5-5.5-.5-7.3,0-17,5-20.5,10.6v54.4h-17.4Z"/>
  </g>
</svg>